ply
format ascii 1.0
element vertex 24
property float x
property float y
property float z
property uchar red
property uchar green
property uchar blue
element face 12
property list uchar int vertex_indices
end_header
-1 -1 1 0 120 200
1 -1 1 9 120 200
1 1 1 18 120 200
-1 1 1 27 120 200
1 -1 -1 36 120 200
-1 -1 -1 45 120 200
-1 1 -1 54 120 200
1 1 -1 63 120 200
1 -1 1 72 120 200
1 -1 -1 81 120 200
1 1 -1 90 120 200
1 1 1 99 120 200
-1 -1 -1 108 120 200
-1 -1 1 117 120 200
-1 1 1 126 120 200
-1 1 -1 135 120 200
-1 1 1 144 120 200
1 1 1 153 120 200
1 1 -1 162 120 200
-1 1 -1 171 120 200
-1 -1 -1 180 120 200
1 -1 -1 189 120 200
1 -1 1 198 120 200
-1 -1 1 207 120 200
3 0 1 2
3 0 2 3
3 4 5 6
3 4 6 7
3 8 9 10
3 8 10 11
3 12 13 14
3 12 14 15
3 16 17 18
3 16 18 19
3 20 21 22
3 20 22 23
